<?xml version="1.0" standalone="no"?>
<!DOCTYPE svg PUBLIC "-//W3C//DTD SVG 20010904//EN"
 "http://www.w3.org/TR/2001/REC-SVG-20010904/DTD/svg10.dtd">
<svg version="1.0" xmlns="http://www.w3.org/2000/svg"
 width="610.000000pt" height="610.000000pt" viewBox="0 0 610.000000 610.000000"
 preserveAspectRatio="xMidYMid meet">
<metadata>
Created by potrace 1.14, written by Peter Selinger 2001-2017
</metadata>
<g transform="translate(0.000000,610.000000) scale(0.100000,-0.100000)"
fill="#000000" stroke="none">
<path d="M3215 4480 l-30 -5 -4 -1220 c-2 -671 -4 -1334 -5 -1472 0 -163 3
-253 9 -253 6 0 193 -2 418 -3 l407 -2 1 270 c0 149 1 411 0 583 0 171 3 312
7 312 4 -1 30 -32 57 -69 28 -38 123 -165 213 -282 89 -118 211 -279 272 -359
60 -80 113 -149 117 -155 5 -5 45 -57 89 -115 44 -58 94 -124 112 -146 l33
-41 534 -1 534 -1 -32 43 c-24 33 -752 941 -830 1036 -6 8 -30 37 -52 65 -22
27 -48 59 -57 70 -9 11 -75 94 -147 183 l-131 164 78 101 c43 56 128 167 188
247 61 80 159 208 218 285 267 350 533 702 553 731 l22 32 -499 0 -498 -1 -99
-144 c-54 -79 -104 -152 -111 -161 -7 -9 -114 -163 -237 -342 -294 -428 -317
-460 -324 -460 -4 0 -6 250 -5 555 l2 555 -67 1 c-439 3 -711 3 -736 -1z"/>
<path d="M287 4423 c22 -27 156 -203 298 -393 142 -190 361 -481 487 -647 125
-167 228 -307 228 -312 0 -8 -90 -120 -545 -681 -74 -91 -198 -244 -276 -340
-77 -96 -150 -185 -160 -198 -11 -13 -76 -92 -144 -177 -94 -116 -120 -154
-107 -157 9 -2 251 -3 536 -3 l520 0 88 115 c49 63 128 167 176 230 49 63 194
252 323 420 128 168 250 326 269 352 19 25 37 44 39 42 3 -3 4 -265 3 -584
l-3 -579 416 -1 415 0 1 32 c0 18 2 683 4 1478 l5 1445 -415 1 -415 1 -1 -41
c0 -23 -1 -274 -2 -558 -1 -285 -4 -518 -7 -518 -5 1 -49 65 -277 400 -50 74
-95 140 -100 145 -4 6 -41 60 -82 120 -41 61 -128 188 -193 283 l-119 172
-500 0 -501 0 39 -47z"/>
</g>
</svg>
